# xmcd
#
# Track frame offsets:
#	150
#	18191
#	34191
#	55379
#	72583
#	87660
#	106117
#	122192
#	137814
#	153211
#	170527
#	186438
#	205379
#	225208
#	243937
#	261846
#
# Disc length: 3697 seconds
#
# Revision: 2
# Processed by: cddbd v1.5.1PL2 Copyright (c) Steve Scherf et al.
# Submitted via: EasyCDDAExtractor 8.0.0.2
#
DISCID=de0e6f10
DTITLE=ФАБРИКА - ДЕВУШКИ ФАБРИЧНЫЕ
DYEAR=2004
DGENRE=Pop
TTITLE0=Девушки Фабричные
TTITLE1=Про Любовь
TTITLE2=5 Минут
TTITLE3=Море Зовёт
TTITLE4=Ой, Мама, Я Влюбилась
TTITLE5=Отпустить Любовь
TTITLE6=Мыльные Пузыри
TTITLE7=Не Всерьёз
TTITLE8=Он
TTITLE9=Заболела Тобой
TTITLE10=ЛёЛик
TTITLE11=Понимаешь
TTITLE12=Рыбка
TTITLE13=Девушки Фабричные (RMX)
TTITLE14=Рыбка DYNAMITE REMIX
TTITLE15=Рыбка ENERGY REMIX
EXTD=
EXTT0=
EXTT1=
EXTT2=
EXTT3=
EXTT4=
EXTT5=
EXTT6=
EXTT7=
EXTT8=
EXTT9=
EXTT10=
EXTT11=
EXTT12=
EXTT13=
EXTT14=
EXTT15=
PLAYORDER=
